<svg xmlns="http://www.w3.org/2000/svg" viewBox="0 0 256 256">
  <defs>
    <linearGradient id="grad" x1="0%" y1="0%" x2="100%" y2="100%">
      <stop offset="0%" style="stop-color:#1e3a8a;stop-opacity:1"/>
      <stop offset="100%" style="stop-color:#14b8a6;stop-opacity:1"/>
    </linearGradient>
  </defs>
  <rect width="256" height="256" fill="#ffffff" opacity="0"/>
  <path d="M80 100c0-13.3 10.7-24 24-24s24 10.7 24 24-10.7 24-24 24-24-10.7-24-24z" fill="url(#grad)"/>
  <path d="M128 100c0-13.3 10.7-24 24-24s24 10.7 24 24-10.7 24-24 24-24-10.7-24-24z" fill="url(#grad)"/>
  <path d="M70 140c-8.8 0-16 7.2-16 16v8c0 4.4 3.6 8 8 8h72v-16c0-8.8-7.2-16-16-16H70z" fill="url(#grad)"/>
  <path d="M138 156v16h72c4.4 0 8-3.6 8-8v-8c0-8.8-7.2-16-16-16h-48c-8.8 0-16 7.2-16 16z" fill="url(#grad)"/>
  <path d="M118 172h20v12c0 6.6-5.4 12-12 12h-4c-2.2 0-4-1.8-4-4v-20z" fill="url(#grad)"/>
</svg>